<svg fill="none" width="97" height="97" viewBox="0 0 97 97" xmlns="http://www.w3.org/2000/svg"><g clip-path="url(#clip0_51_272716)"><path d="M86.5545 78.1995C87.4037 78.9391 86.5674 79.8339 84.6815 80.1982L31.5543 90.5024C29.6705 90.8668 27.4548 90.5649 26.6056 89.8254L10.4297 75.7631C9.58047 75.0235 10.4189 74.1287 12.3027 73.7643L65.4299 63.4602C67.3158 63.0936 69.5294 63.3977 70.3807 64.1351L86.5545 78.1995Z" fill="url(#paint0_linear_51_272716)" stroke="#0500FF" stroke-width="0.0622682" stroke-linecap="round" stroke-linejoin="round"></path><path d="M84.0267 78.6267C84.2616 78.8294 84.031 79.0752 83.5116 79.1765L43.1591 87.0033C42.6397 87.1046 42.0319 87.0205 41.797 86.8178L25.7482 72.8569C25.5133 72.6542 25.7439 72.4084 26.2634 72.3071L66.6136 64.4825C67.1331 64.3811 67.7409 64.4652 67.9758 64.6679L84.0267 78.6267Z" fill="#0500FF"></path><path d="M65.4304 63.4586L16.9372 72.8637L16.5815 76.3933L38.426 89.1683L42.2065 88.4352L81.6731 73.9547L70.3791 64.1335C69.5298 63.3939 67.3141 63.0921 65.4282 63.4586H65.4304Z" fill="#1B1B1C"></path><path d="M37.3534 88.1116L36.2197 88.3315L35.502 87.7084L31.2236 88.5385L30.6201 88.0124L34.8985 87.1823L34.1872 86.5656L35.3231 86.3457L37.3534 88.1116Z" fill="black"></path><path d="M21.7073 74.4906C22.3841 75.0792 21.7159 75.7929 20.2158 76.0839C18.7135 76.375 16.9483 76.1335 16.2715 75.5449C15.5947 74.9563 16.2629 74.2426 17.7652 73.9515C19.2675 73.6604 21.0305 73.9019 21.7073 74.4906Z" fill="black"></path><path d="M26.1166 78.3382L25.0346 78.5495L24.0518 77.6935L25.1337 77.4844L26.1166 78.3382Z" fill="black"></path><path d="M22.8692 78.9691L21.7851 79.1804L20.8022 78.3244L21.8864 78.1152L22.8692 78.9691Z" fill="black"></path><path d="M26.0162 79.4046L24.9321 79.6138L23.9492 78.7599L25.0334 78.5508L26.0162 79.4046Z" fill="black"></path><path d="M24.9345 79.6136L23.8525 79.8249L22.8696 78.9689L23.9516 78.7598L24.9345 79.6136Z" fill="black"></path><path d="M22.767 80.0335L21.685 80.2448L20.7021 79.3888L21.7841 79.1797L22.767 80.0335Z" fill="black"></path><path d="M28.0809 80.0472L26.999 80.2563L26.0161 79.4025L27.0981 79.1934L28.0809 80.0472Z" fill="black"></path><path d="M25.9154 80.4693L24.8334 80.6784L23.8506 79.8246L24.9326 79.6133L25.9154 80.4693Z" fill="black"></path><path d="M24.836 80.678L23.7519 80.8872L22.769 80.0334L23.8532 79.8242L24.836 80.678Z" fill="black"></path><path d="M29.6978 81.4505L28.6158 81.6597L27.0015 80.256L28.0835 80.0469L29.6978 81.4505Z" fill="black"></path><path d="M28.6145 81.6615L27.5304 81.8728L25.916 80.4691L27.0002 80.2578L28.6145 81.6615Z" fill="black"></path><path d="M27.5284 81.8724L26.4464 82.0815L24.832 80.6779L25.914 80.4688L27.5284 81.8724Z" fill="black"></path><path d="M26.449 82.0814L25.3648 82.2927L23.7505 80.8869L24.8346 80.6777L26.449 82.0814Z" fill="black"></path><path d="M25.3648 82.2925L24.2828 82.5017L22.6685 81.098L23.7504 80.8867L25.3648 82.2925Z" fill="black"></path><path d="M33.1724 84.4754L27.7582 85.5255L27.1504 84.9972L29.1139 83.8544C29.2152 83.7919 29.6441 83.5742 29.6657 83.5634C29.6592 83.5569 28.9695 83.6992 28.7798 83.7359L26.258 84.2253L25.6675 83.7121L31.0817 82.6621L31.6895 83.1904L29.6958 84.346C29.5816 84.4086 29.1958 84.6156 29.1742 84.6263C29.1807 84.6328 29.8252 84.4991 30.0148 84.4625L32.5818 83.9644L33.1724 84.4776V84.4754Z" fill="black"></path><path d="M35.324 86.3461L34.1946 86.5638L32.9833 85.5095L31.884 85.7229L32.8992 86.6048L31.8172 86.814L30.802 85.9321L28.6984 86.3418L28.0928 85.8157L33.507 84.7656L35.324 86.3461Z" fill="black"></path><path d="M10.1204 76.5503L10.0967 75.166C10.101 75.3687 10.2066 75.5714 10.4286 75.7633L10.4523 77.1475C10.2303 76.9556 10.1247 76.7508 10.1204 76.5503Z" fill="#1B1B1C" stroke="#0500FF" stroke-width="0.0622682" stroke-linecap="round" stroke-linejoin="round"></path><path d="M86.8856 78.7969L86.9093 80.1811C86.9179 80.7525 86.0989 81.3131 84.7044 81.5826L84.6807 80.1984C86.0752 79.9288 86.8964 79.3683 86.8856 78.7969Z" fill="#FFAEFE" stroke="#0500FF" stroke-width="0.0622682" stroke-linecap="round" stroke-linejoin="round"></path><path d="M26.6034 89.8262L26.6271 91.2104L10.4534 77.146L10.4297 75.7617L26.6034 89.8262Z" fill="#1B1B1C" stroke="#0500FF" stroke-width="0.0622682" stroke-linecap="round" stroke-linejoin="round"></path><path d="M84.6794 80.1992L84.7032 81.5835L31.576 91.8876L31.5522 90.5034L84.6794 80.1992Z" fill="#FFAEFE" stroke="#0500FF" stroke-width="0.0622682" stroke-linecap="round" stroke-linejoin="round"></path><path d="M31.5522 90.5032L31.5759 91.8874C29.6921 92.2518 27.4764 91.95 26.6272 91.2104L26.6035 89.8262C27.4527 90.5657 29.6684 90.8676 31.5522 90.5032Z" fill="#1B1B1C" stroke="#0500FF" stroke-width="0.0622682" stroke-linecap="round" stroke-linejoin="round"></path></g><g clip-path="url(#clip1_51_272716)"><path d="M78.5057 36.77C79.8134 37.5267 79.8932 39.4843 78.6802 41.1421L44.523 87.9009C43.3122 89.5587 41.2697 90.2917 39.9598 89.535L15.0519 75.1424C13.7441 74.3857 13.6644 72.4282 14.8752 70.7703L49.0323 24.0116C50.2432 22.3537 52.2878 21.6229 53.5955 22.3774L78.5078 36.77H78.5057Z" fill="url(#paint1_linear_51_272716)" stroke="#0500FF" stroke-width="0.0622682" stroke-linecap="round" stroke-linejoin="round"></path><path d="M15.4463 75.5886L14.6836 74.875C14.7913 74.9763 14.9141 75.0669 15.0477 75.1445L15.8104 75.8581C15.6768 75.7805 15.554 75.6899 15.4463 75.5886Z" fill="#FFAEFE" stroke="#0500FF" stroke-width="0.0622682" stroke-linecap="round" stroke-linejoin="round"></path><path d="M78.8703 37.041L79.6329 37.7546C80.5788 38.6407 80.5314 40.3697 79.4433 41.8572L78.6807 41.1436C79.7665 39.6561 79.8161 37.9271 78.8703 37.041Z" fill="#FFAEFE" stroke="#0500FF" stroke-width="0.0622682" stroke-linecap="round" stroke-linejoin="round"></path><path d="M39.9609 89.5371L40.7236 90.2507L15.8113 75.8581L15.0508 75.1445L39.9609 89.5371Z" fill="#0500FF" stroke="#0500FF" stroke-width="0.0622682" stroke-linecap="round" stroke-linejoin="round"></path><path d="M78.6816 41.1426L79.4421 41.854L45.2871 88.6149L44.5244 87.9013L78.6816 41.1426Z" fill="#FFAEFE" stroke="#0500FF" stroke-width="0.0622682" stroke-linecap="round" stroke-linejoin="round"></path><path d="M44.5236 87.9023L45.2863 88.6159C44.0755 90.2738 42.0331 91.0068 40.7231 90.2501L39.9604 89.5365C41.2682 90.2932 43.3107 89.5602 44.5236 87.9023Z" fill="#1B1B1C" stroke="#0500FF" stroke-width="0.0622682" stroke-linecap="round" stroke-linejoin="round"></path><path d="M51.6089 25.7661C51.3547 25.5268 51.1004 25.2897 50.8462 25.0525C51.1801 24.5955 51.7425 24.3928 52.1023 24.602L52.8649 25.3156C52.5051 25.1064 51.9428 25.3091 51.6089 25.7661Z" fill="#FFAEFE"></path><path d="M23.0763 66.7432C24.1191 67.3447 24.1816 68.9034 23.2164 70.2249C22.2512 71.5443 20.6245 72.1286 19.5818 71.5249C18.539 70.9213 18.4765 69.3647 19.4417 68.0432C20.4069 66.7216 22.0336 66.1395 23.0763 66.741V66.7432Z" fill="black"></path><path d="M29.8768 70.6876L29.1809 71.6426L27.6685 70.7673L28.3644 69.8145L29.8768 70.6876Z" fill="black"></path><path d="M27.7894 73.5472L27.0935 74.5001L25.5811 73.6248L26.277 72.6719L27.7894 73.5472Z" fill="black"></path><path d="M30.6958 72.5157L30 73.4686L28.4854 72.5933L29.1812 71.6426L30.6958 72.5157Z" fill="black"></path><path d="M29.9986 73.469L29.3005 74.4241L27.7881 73.5488L28.484 72.5938L29.9986 73.469Z" fill="black"></path><path d="M28.608 75.3731L27.9121 76.326L26.3975 75.4507L27.0934 74.5L28.608 75.3731Z" fill="black"></path><path d="M32.9046 72.4378L32.2087 73.3907L30.6963 72.5154L31.3922 71.5625L32.9046 72.4378Z" fill="black"></path><path d="M31.5142 74.344L30.8183 75.2969L29.3037 74.4238L30.0018 73.4688L31.5142 74.344Z" fill="black"></path><path d="M30.8148 75.297L30.1189 76.2499L28.6064 75.3746L29.3002 74.4238L30.8148 75.297Z" fill="black"></path><path d="M35.3904 73.8733L34.6923 74.8262L32.2061 73.3904L32.902 72.4375L35.3904 73.8733Z" fill="black"></path><path d="M33.9976 75.7796L33.3017 76.7325L30.8154 75.2966L31.5113 74.3438L33.9976 75.7796Z" fill="black"></path><path d="M33.3023 76.7327L32.6064 77.6856L30.1201 76.2498L30.816 75.2969L33.3023 76.7327Z" fill="black"></path><path d="M32.607 77.6858L31.9111 78.6387L29.4248 77.2007L30.1207 76.25L32.607 77.6858Z" fill="black"></path><path d="M40.7474 76.9679L37.2679 81.7324L36.3329 81.1913L36.9512 78.1946C36.9814 78.0329 37.143 77.4314 37.1516 77.3991C37.1408 77.3926 36.7034 78.0114 36.5806 78.1795L34.9605 80.3979L34.0513 79.8719L37.5308 75.1074L38.4658 75.6485L37.8324 78.6862C37.7936 78.8522 37.6557 79.4127 37.6471 79.4407C37.6579 79.4472 38.0651 78.8694 38.1879 78.7013L39.8382 76.4419L40.7474 76.9679Z" fill="black"></path><path d="M44.0579 78.8825L43.3319 79.8742L41.4661 78.7963L40.7594 79.7621L42.3214 80.6654L41.6234 81.6183L40.0635 80.7172L38.7105 82.5669L37.7798 82.0301L41.2593 77.2656L44.0579 78.8825Z" fill="black"></path><path d="M47.1864 80.6894L46.456 81.6898L45.3508 81.0516L42.6016 84.8158L41.6709 84.279L44.42 80.5148L43.3277 79.8831L44.0581 78.8828L47.1864 80.6894Z" fill="black"></path><path d="M32.2086 73.3906L31.5127 74.3435L33.999 75.7793L34.6949 74.8264L32.2086 73.3906Z" fill="black"></path><path d="M52.9801 76.3269L74.2534 34.3133L53.5963 22.3784C52.2885 21.6216 50.2439 22.3546 49.0331 24.0125L20.0251 63.7215L17.4548 69.4475C16.8171 70.8704 17.4333 72.6037 18.8272 73.3022L45.4394 86.6492L52.9801 76.3269Z" fill="#1B1B1C"></path><path d="M76.8272 38.8846C77.187 39.0937 77.2085 39.6327 76.8767 40.0898L50.9346 75.6034C50.6007 76.0605 50.0384 76.261 49.6786 76.054L24.9559 61.7714C24.5961 61.5622 24.5745 61.0233 24.9085 60.5684L50.8463 25.0525C51.1802 24.5955 51.7426 24.3928 52.1024 24.602L76.825 38.8846H76.8272Z" fill="#0500FF"></path><path d="M74.4038 43.3456L71.0299 41.0388L64.8487 39.8164L59.2729 40.6313L54.2831 43.3089L49.9289 47.9117L48.0782 53.0448L47.5288 58.773L49.5368 64.9L53.068 69.0371L54.7593 70.2401" stroke="#FFAEFE" stroke-width="0.0622682" stroke-linecap="round" stroke-linejoin="round"></path><path d="M54.7593 70.2401L53.068 69.0371L49.5368 64.9L47.5288 58.773L48.0782 53.0448L49.9289 47.9117L54.2831 43.3089L59.2729 40.6313L64.8487 39.8164L71.0299 41.0388L74.4038 43.3456L54.7593 70.2401Z" fill="#0500FF"></path><path d="M54.0042 44.293L55.48 47.309L50.501 49.9284L54.0042 44.293Z" stroke="#FFAEFE" stroke-width="0.0435877" stroke-linecap="round" stroke-linejoin="round"></path><path d="M66.0132 43.7656L65.522 49.3515L60.9136 46.1996L66.0132 43.7656Z" stroke="#FFAEFE" stroke-width="0.0435877" stroke-linecap="round" stroke-linejoin="round"></path><path d="M55.4819 47.3075L60.9134 46.1993L59.8318 42.709L55.4819 47.3075Z" stroke="#FFAEFE" stroke-width="0.0435877" stroke-linecap="round" stroke-linejoin="round"></path><path d="M66.0113 43.7654L60.9116 46.1993L59.8301 42.709L66.0113 43.7654Z" fill="#FFAEFE" stroke="#FFAEFE" stroke-width="0.0435877" stroke-linecap="round" stroke-linejoin="round"></path><path d="M55.4817 47.3075L54.0059 44.2914L59.8316 42.709L55.4817 47.3075Z" fill="#FFAEFE" stroke="#FFAEFE" stroke-width="0.0435877" stroke-linecap="round" stroke-linejoin="round"></path><path d="M57.4463 58.1663L64.0455 56.0083L58.9437 51.5176L57.4463 58.1663Z" fill="#FFAEFE" stroke="#FFAEFE" stroke-width="0.0435877" stroke-linecap="round" stroke-linejoin="round"></path><path d="M59.2736 40.6309L59.8316 42.7091L54.0059 44.2915L59.2736 40.6309Z" fill="#FFAEFE" stroke="#FFAEFE" stroke-width="0.0435877" stroke-linecap="round" stroke-linejoin="round"></path><path d="M59.2729 40.6309L59.831 42.7092L65.5059 40.5059L59.2729 40.6309Z" fill="#FFAEFE" stroke="#FFAEFE" stroke-width="0.0435877" stroke-linecap="round" stroke-linejoin="round"></path><path d="M66.0113 43.7655L59.8301 42.7092L65.505 40.5059L66.0113 43.7655Z" fill="#0500FF" stroke="#FFAEFE" stroke-width="0.0435877" stroke-linecap="round" stroke-linejoin="round"></path><path d="M71.1743 43.0606L66.0122 43.7655L65.5059 40.5059L71.1743 43.0606Z" fill="#0500FF" stroke="#FFAEFE" stroke-width="0.0435877" stroke-linecap="round" stroke-linejoin="round"></path><path d="M54.2838 43.3085L59.2736 40.6309L54.0059 44.2915L54.2838 43.3085Z" fill="#FFAEFE" stroke="#FFAEFE" stroke-width="0.0435877" stroke-linecap="round" stroke-linejoin="round"></path><path d="M54.2834 43.3086L49.9292 47.9114L54.0055 44.2917L54.2834 43.3086Z" fill="#FFAEFE" stroke="#FFAEFE" stroke-width="0.0435877" stroke-linecap="round" stroke-linejoin="round"></path><path d="M54.0055 44.293L49.9292 47.9127L50.5023 49.9284L54.0055 44.293Z" fill="#FFAEFE" stroke="#FFAEFE" stroke-width="0.0435877" stroke-linecap="round" stroke-linejoin="round"></path><path d="M64.8487 39.8164L71.03 41.0388L65.5059 40.5063L59.2729 40.6313L64.8487 39.8164Z" fill="#FFAEFE" stroke="#FFAEFE" stroke-width="0.0435877" stroke-linecap="round" stroke-linejoin="round"></path><path d="M55.48 47.3066L53.0196 53.6945L50.501 49.926L55.48 47.3066Z" fill="#FFAEFE" stroke="#FFAEFE" stroke-width="0.0435877" stroke-linecap="round" stroke-linejoin="round"></path><path d="M53.021 53.6945L58.9437 51.5171L55.4814 47.3066L53.021 53.6945Z" stroke="#FFAEFE" stroke-width="0.0435877" stroke-linecap="round" stroke-linejoin="round"></path><path d="M48.936 56.6821L53.0209 53.6962L50.5023 49.9277L48.936 56.6821Z" fill="#FFAEFE" stroke="#FFAEFE" stroke-width="0.0435877" stroke-linecap="round" stroke-linejoin="round"></path></g><g clip-path="url(#clip2_51_272716)"><path d="M62.2865 15.0003C63.7121 15.5222 64.3893 17.5257 63.8027 19.4752L47.2584 74.4774C46.6718 76.427 45.0413 77.5851 43.6179 77.0653L16.4992 67.1471C15.0736 66.6252 14.3942 64.6238 14.9809 62.6721L31.5251 7.66996C32.1117 5.72039 33.7422 4.56013 35.1678 5.08203L62.2865 15.0003Z" fill="url(#paint2_linear_51_272716)"></path><path d="M49.4776 67.0887L55.5876 46.7734L31.3223 72.532L41.0103 76.0753L49.4776 67.0887Z" fill="#F4F4F7"></path><path d="M62.2865 15.0003C63.7121 15.5222 64.3893 17.5257 63.8027 19.4752L47.2584 74.4774C46.6718 76.427 45.0413 77.5851 43.6179 77.0653L16.4992 67.1471C15.0736 66.6252 14.3942 64.6238 14.9809 62.6721L31.5251 7.66996C32.1117 5.72039 33.7422 4.56013 35.1678 5.08203L62.2865 15.0003Z" stroke="#0500FF" stroke-width="0.0622682" stroke-linecap="round" stroke-linejoin="round"></path><path d="M44.8505 77.3599L43.8735 77.14C45.2323 77.4441 46.7053 76.3118 47.2574 74.4766L48.2344 74.6965C47.6823 76.5297 46.2093 77.664 44.8505 77.3599Z" fill="#FFAEFE" stroke="#0500FF" stroke-width="0.0622682" stroke-linecap="round" stroke-linejoin="round"></path><path d="M35.1685 5.08398L36.1455 5.30396L63.2641 15.2222L62.2871 15.0022L35.1685 5.08398Z" fill="#FFAEFE" stroke="#0500FF" stroke-width="0.0622682" stroke-linecap="round" stroke-linejoin="round"></path><path d="M63.8016 19.4766L64.7786 19.6965L48.2343 74.6987L47.2573 74.4787L63.8016 19.4766Z" fill="#FFAEFE" stroke="#0500FF" stroke-width="0.0622682" stroke-linecap="round" stroke-linejoin="round"></path><path d="M62.2847 15L63.2617 15.22C64.6873 15.7419 65.3645 17.7454 64.7778 19.6949L63.8008 19.475C64.3875 17.5254 63.7103 15.5197 62.2847 15Z" fill="#FFAEFE" stroke="#0500FF" stroke-width="0.0622682" stroke-linecap="round" stroke-linejoin="round"></path><path d="M63.8055 22.9291L63.1154 21.7559L59.9277 32.3513L60.6179 33.5245L63.8055 22.9291Z" fill="#1B1B1C" stroke="#1B1B1C" stroke-width="0.0622682" stroke-linecap="round" stroke-linejoin="round"></path><path d="M60.2333 34.8041L59.541 33.6309L58.9048 35.7508L59.5949 36.924L60.2333 34.8041Z" fill="#1B1B1C" stroke="#1B1B1C" stroke-width="0.0622682" stroke-linecap="round" stroke-linejoin="round"></path><path d="M40.4235 63.9431L38.7369 69.5482L37.7189 69.1751L37.3523 65.9617C37.3286 65.787 37.2876 65.1357 37.2854 65.1012C37.2746 65.0969 37.0676 65.8215 37.0094 66.0178L36.2243 68.6294L35.2344 68.2671L36.9209 62.6621L37.9389 63.0352L38.3077 66.2938C38.3228 66.4728 38.3703 67.0767 38.3724 67.109C38.3832 67.1133 38.5751 66.434 38.6334 66.2378L39.4335 63.5808L40.4235 63.9431Z" fill="black"></path><path d="M44.0341 65.2632L43.6826 66.4321L41.6509 65.6881L41.308 66.8246L43.0075 67.4457L42.6711 68.5671L40.9716 67.946L40.3159 70.1242L39.3022 69.7533L40.9888 64.1504L44.0341 65.2632Z" fill="black"></path><path d="M47.4416 66.5102L47.0879 67.6855L45.8844 67.2456L44.5515 71.6753L43.54 71.3043L44.8729 66.8747L43.6802 66.439L44.0339 65.2637L47.4416 66.5102Z" fill="black"></path><path d="M61.4137 17.5155C61.8062 17.66 61.9938 18.2099 61.8321 18.7469L49.267 60.5226C49.1052 61.0596 48.6566 61.3787 48.2641 61.2364L21.3525 51.3936C20.96 51.2491 20.7723 50.697 20.9341 50.16L33.497 8.38438C33.6588 7.84738 34.1074 7.53036 34.4999 7.6727L61.4115 17.5155H61.4137Z" fill="#1B1B1C"></path><path d="M38.3484 27.2431L37.5439 26.9498C37.4382 26.911 37.3304 26.9089 37.229 26.9369L30.6704 28.7053C30.7718 28.6773 30.8796 28.6794 30.9853 28.7182L31.7898 29.0115C31.8933 29.0504 32.0033 29.0525 32.1046 29.0245L38.6632 27.2561C38.5619 27.2841 38.454 27.2819 38.3484 27.2431Z" fill="#1B1B1C" stroke="#0500FF" stroke-width="0.0622682" stroke-linecap="round" stroke-linejoin="round"></path><path d="M51.7993 35.6101C51.6914 35.9681 51.8554 36.352 52.1638 36.4641L56.8848 35.1917L58.1508 30.9863L52.7547 32.442L51.8014 35.6101H51.7993Z" fill="#1B1B1C" stroke="#0500FF" stroke-width="0.0622682" stroke-linecap="round" stroke-linejoin="round"></path><path d="M41.6201 23.4758L40.8157 23.1803C40.7121 23.1415 40.6043 23.1393 40.5029 23.1674L33.9443 24.9358C34.0457 24.9077 34.1535 24.9121 34.2571 24.9487L35.0615 25.2442C35.165 25.283 35.2729 25.2851 35.3742 25.2571L41.9328 23.4887C41.8315 23.5167 41.7236 23.5146 41.6201 23.4758Z" fill="#1B1B1C" stroke="#0500FF" stroke-width="0.0622682" stroke-linecap="round" stroke-linejoin="round"></path><path d="M40.9247 50.4405L40.6443 51.3743C40.5731 51.6115 40.4006 51.7776 40.2021 51.8315L46.7608 50.0631C46.9592 50.0091 47.1317 49.8409 47.2029 49.6059L47.4833 48.672C47.5544 48.4348 47.727 48.2666 47.9254 48.2148L41.3668 49.9833C41.1684 50.0372 40.9958 50.2054 40.9247 50.4405Z" fill="#1B1B1C" stroke="#0500FF" stroke-width="0.0622682" stroke-linecap="round" stroke-linejoin="round"></path><path d="M45.4486 49.6143L45.1682 50.5481C45.097 50.7853 44.9245 50.9535 44.7261 51.0053L51.2847 49.2369C51.4831 49.183 51.6556 49.0148 51.7268 48.7797L52.0072 47.8459C52.0784 47.6086 52.2509 47.4426 52.4493 47.3887L45.8907 49.1571C45.6923 49.211 45.5197 49.3792 45.4486 49.6143Z" fill="#1B1B1C" stroke="#0500FF" stroke-width="0.0622682" stroke-linecap="round" stroke-linejoin="round"></path><path d="M46.142 22.6515L43.4094 21.653C43.3059 21.6141 43.1981 21.612 43.0967 21.64L36.5381 23.4084C36.6395 23.3804 36.7473 23.3826 36.8508 23.4214L39.5834 24.4199C39.6869 24.4587 39.7947 24.4609 39.8961 24.4328L46.4547 22.6644C46.3533 22.6924 46.2455 22.6881 46.142 22.6515Z" fill="#1B1B1C" stroke="#0500FF" stroke-width="0.0622682" stroke-linecap="round" stroke-linejoin="round"></path><path d="M48.7174 45.8501L47.7641 49.0181C47.6929 49.2554 47.5182 49.4236 47.3198 49.4775L53.0502 47.9312L54.2257 44.0234L49.1617 45.3886C48.9632 45.4425 48.7907 45.6107 48.7195 45.8458L48.7174 45.8501Z" fill="#1B1B1C" stroke="#0500FF" stroke-width="0.0622682" stroke-linecap="round" stroke-linejoin="round"></path><path d="M52.9695 36.758L52.1651 36.4626C51.8567 36.3504 51.6927 35.9644 51.8006 35.6086L52.7539 32.4405C52.8617 32.0825 52.6978 31.6965 52.3894 31.5843L51.5849 31.2889C51.2765 31.1767 51.1104 30.7907 51.2183 30.4327L51.4986 29.4989C51.6065 29.1409 51.4426 28.757 51.1342 28.6449L48.4037 27.6464C48.0953 27.5342 47.9314 27.1482 48.0393 26.7902L48.3196 25.8585C48.4275 25.5005 48.2635 25.1145 47.9551 25.0024L41.3728 22.5956C41.0644 22.4834 40.7258 22.684 40.618 23.042L40.3376 23.9736C40.2297 24.3316 39.889 24.5322 39.5827 24.4201L36.8502 23.4216C36.5417 23.3094 36.2031 23.51 36.0953 23.8658L35.8149 24.7996C35.7071 25.1576 35.3663 25.3582 35.0601 25.2439L34.2556 24.9484C33.9472 24.8363 33.6086 25.0369 33.5008 25.3949L32.5475 28.5629C32.4396 28.9209 32.0989 29.1215 31.7905 29.0072L30.986 28.7139C30.6776 28.6017 30.3368 28.8001 30.229 29.1581L27.9321 36.7968C27.8243 37.1548 27.9882 37.5409 28.2966 37.653L29.101 37.9463C29.4094 38.0585 29.5734 38.4445 29.4677 38.8025L28.5144 41.9706C28.4066 42.3307 28.5705 42.7146 28.8789 42.8267L29.6834 43.1222C29.9918 43.2343 30.1557 43.6204 30.0478 43.9762L29.7675 44.91C29.6596 45.268 29.8235 45.6519 30.132 45.764L32.8645 46.7625C33.1729 46.8747 33.3368 47.2607 33.229 47.6166L32.9486 48.5504C32.8408 48.9084 33.0047 49.2922 33.3131 49.4044L39.8955 51.8112C40.2039 51.9233 40.5446 51.7249 40.6525 51.3669L40.9328 50.4331C41.0407 50.0751 41.3814 49.8745 41.6877 49.9888L44.4181 50.9873C44.7265 51.0995 45.0651 50.8989 45.173 50.5431L45.4533 49.6093C45.5612 49.2513 45.9019 49.0507 46.2103 49.165L47.0148 49.4605C47.3232 49.5726 47.6618 49.372 47.7697 49.014L48.7229 45.846C48.8308 45.488 49.1715 45.2874 49.4778 45.4017L50.2822 45.6972C50.5907 45.8093 50.9293 45.6087 51.0371 45.2508L53.334 37.612C53.4419 37.254 53.2779 36.8702 52.9695 36.758Z" fill="#48FF91"></path><path d="M57.7786 28.6661L58.059 27.7322C58.1668 27.3742 58.0029 26.9904 57.6945 26.8782L54.9641 25.8797C54.6557 25.7676 54.4917 25.3815 54.5996 25.0235L54.88 24.0897C54.9878 23.7317 54.8239 23.3457 54.5155 23.2336L47.9353 20.8268C47.8318 20.788 47.7239 20.7858 47.6226 20.8138L41.064 22.5823C41.1653 22.5542 41.2732 22.5564 41.3767 22.5952L47.959 25.002C48.2674 25.1141 48.4335 25.5002 48.3235 25.8582L48.0431 26.792C47.9353 27.15 48.0992 27.536 48.4076 27.6481L51.138 28.6466C51.4464 28.7588 51.6104 29.1448 51.5025 29.5007L51.2221 30.4345C51.1143 30.7925 51.2782 31.1764 51.5888 31.2907L52.3932 31.5861C52.7017 31.6982 52.8656 32.0843 52.7577 32.4423L51.8045 35.6103C51.6966 35.9683 51.8605 36.3522 52.169 36.4644L52.9734 36.7598C53.2818 36.872 53.4457 37.258 53.3379 37.6138L51.041 45.2525C50.9698 45.4898 50.7951 45.658 50.5967 45.7119L54.0022 44.7932L58.5529 29.6667L58.1496 29.5201C57.8411 29.4079 57.6751 29.0219 57.7829 28.6639L57.7786 28.6661Z" fill="#1B1B1C" stroke="#0500FF" stroke-width="0.0622682" stroke-linecap="round" stroke-linejoin="round"></path><path d="M51.0361 45.2522C50.9649 45.4894 50.7902 45.6576 50.5918 45.7116L53.9973 44.7928L56.4063 36.7832L53.3352 37.6113L51.0382 45.25L51.0361 45.2522Z" fill="#1B1B1C" stroke="#0500FF" stroke-width="0.0622682" stroke-linecap="round" stroke-linejoin="round"></path><path d="M54.601 25.0217L54.8814 24.0879L48.3228 25.8563L48.0424 26.7901C47.9346 27.1481 48.0985 27.5342 48.4069 27.6463L54.9655 25.8779C54.6571 25.7657 54.4932 25.3797 54.601 25.0217Z" fill="#1B1B1C" stroke="#0500FF" stroke-width="0.0622682" stroke-linecap="round" stroke-linejoin="round"></path><path d="M57.7763 28.6662L58.0567 27.7324L51.4981 29.5008L51.2177 30.4347C51.1099 30.7926 51.2738 31.1765 51.5844 31.2908L58.143 29.5224C57.8346 29.4103 57.6685 29.0242 57.7763 28.6662Z" fill="#1B1B1C" stroke="#0500FF" stroke-width="0.0622682" stroke-linecap="round" stroke-linejoin="round"></path><path d="M40.164 29.5942L39.3595 29.2987C39.0511 29.1866 38.7125 29.3871 38.6046 29.743L38.128 31.3281L37.4551 33.5623L36.9785 35.1474C36.8706 35.5054 37.0346 35.8915 37.343 36.0036L38.1474 36.2991C38.4558 36.4112 38.7944 36.2106 38.9023 35.8526L39.3789 34.2675L40.0518 32.0333L40.5284 30.4482C40.6363 30.0902 40.4724 29.7063 40.164 29.5942Z" fill="#1B1B1C"></path><path d="M45.9386 31.7074L45.1341 31.4141C44.8257 31.302 44.4849 31.5004 44.3771 31.8584L43.9005 33.4435L43.2276 35.6778L42.7509 37.2629C42.6431 37.6209 42.807 38.0069 43.1154 38.119L43.9199 38.4123C44.2283 38.5245 44.5691 38.3261 44.6769 37.9659L45.1535 36.3808L45.8264 34.1466L46.3031 32.5615C46.4109 32.2035 46.247 31.8196 45.9364 31.7053L45.9386 31.7074Z" fill="#1B1B1C"></path><path d="M35.5501 37.8285L34.7456 37.5331C34.4372 37.4209 34.0986 37.6215 33.9908 37.9795L33.7104 38.9111C33.6026 39.2691 33.7665 39.6552 34.0749 39.7673L35.4401 40.2677L35.9167 38.6825C36.0246 38.3246 35.8607 37.9385 35.5523 37.8264L35.5501 37.8285Z" fill="#1B1B1C"></path><path d="M39.2873 41.6797L37.3613 40.9745L35.4375 40.2715L34.9609 41.8566C34.8531 42.2146 35.017 42.5985 35.3254 42.7106L36.6906 43.2109L38.6166 43.9162L40.5404 44.6192L41.9056 45.1195C42.214 45.2317 42.5547 45.0333 42.6626 44.6753L43.1392 43.0902L41.2133 42.385L39.2894 41.6819L39.2873 41.6797Z" fill="#1B1B1C"></path><path d="M45.1785 41.35L44.3741 41.0546C44.0657 40.9424 43.7271 41.143 43.6192 41.501L43.1426 43.0861L44.5078 43.5864C44.8162 43.6986 45.1548 43.498 45.2626 43.14L45.543 42.2083C45.6509 41.8503 45.4869 41.4643 45.1785 41.3522V41.35Z" fill="#1B1B1C"></path></g><defs><linearGradient id="paint0_linear_51_272716" x1="10.0978" y1="76.9813" x2="86.8864" y2="76.9813" gradientUnits="userSpaceOnUse"><stop stop-color="#FFAEFE"></stop><stop offset="1" stop-color="#FFF465"></stop></linearGradient><linearGradient id="paint1_linear_51_272716" x1="40.5609" y1="53.6419" x2="71.7756" y2="65.2467" gradientUnits="userSpaceOnUse"><stop stop-color="#FFAEFE"></stop><stop offset="1" stop-color="#FFF465"></stop></linearGradient><linearGradient id="paint2_linear_51_272716" x1="14.807" y1="41.036" x2="63.9781" y2="41.1132" gradientUnits="userSpaceOnUse"><stop stop-color="#FFAEFE"></stop><stop offset="1" stop-color="#FFF465"></stop></linearGradient><clipPath id="clip0_51_272716"><rect width="77.0257" height="28.9547" fill="white" transform="translate(9.98828 63.1953)"></rect></clipPath><clipPath id="clip1_51_272716"><rect width="66.5024" height="68.6818" fill="white" transform="translate(13.9102 21.9727)"></rect></clipPath><clipPath id="clip2_51_272716"><rect width="50.4372" height="72.6669" fill="white" transform="translate(14.6582 4.84961)"></rect></clipPath></defs></svg>