<svg fill="none" width="160" height="160" viewBox="0 0 160 160" xmlns="http://www.w3.org/2000/svg"><g clip-path="url(#clip0_31_40812)"><path d="M30.5389 66.6243C22.2647 52.3363 27.1408 34.044 41.4288 25.7698C55.7169 17.4956 74.0091 22.3718 82.2833 36.6598L30.5389 66.6243Z" fill="#2D9FFF" stroke="#0500FF" stroke-width="0.286646" stroke-linecap="round" stroke-linejoin="round"></path><path d="M41.7918 26.5544C39.3492 27.9698 37.1814 29.6778 35.3062 31.6097C39.4627 28.3699 44.3269 26.4738 48.2326 26.7127C54.6793 27.1068 57.8117 24.8165 62.855 23.1653C55.9066 21.7141 48.4177 22.7174 41.7918 26.5544Z" fill="#F4F4F7"></path><path d="M45.7964 33.3139C20.3228 48.0647 4.79259 68.8563 11.102 79.7552C17.4144 90.6541 43.1777 87.5307 68.6513 72.7828C94.1219 58.032 109.655 37.2405 103.343 26.3415C97.0302 15.4426 71.267 18.566 45.7934 33.3139H45.7964ZM66.2744 68.6771C57.0835 74.0011 47.7851 75.1269 45.5067 71.1943C43.2284 67.2617 48.8332 59.7579 58.0271 54.4339C67.218 49.1098 76.5164 47.9841 78.7947 51.9167C81.073 55.8492 75.4683 63.3531 66.2744 68.6771Z" fill="#1B1B1C" stroke="#0500FF" stroke-width="0.286646" stroke-linecap="round" stroke-linejoin="round"></path><path d="M57.4654 44.5311C61.6667 42.4289 63.9838 40.6582 63.9659 38.0156C64.0854 40.6762 66.3876 40.6911 70.1022 39.649C66.8385 40.5597 64.3571 41.7511 64.2287 44.2414C64.166 42.0676 62.0788 42.3244 57.4624 44.5311H57.4654Z" fill="#0500FF" stroke="#0500FF" stroke-width="0.286646" stroke-linecap="round" stroke-linejoin="round"></path><path d="M36.1773 74.1161C32.9434 75.0418 31.761 74.9791 31.3041 73.707C31.8774 75.0716 30.5069 75.7375 28.5122 76.2541C30.6024 75.7465 32.1611 75.9197 33.1077 76.8901C32.2387 75.9465 33.257 74.9402 36.1773 74.1161Z" fill="#0500FF" stroke="#0500FF" stroke-width="0.286646" stroke-linecap="round" stroke-linejoin="round"></path><path d="M44.2504 30.6478C18.7798 45.3987 3.24664 66.1902 9.55906 77.0892L11.1028 79.7527C4.79041 68.8538 20.3236 48.0622 45.7942 33.3114C71.2648 18.5605 97.031 15.4401 103.34 26.339L101.797 23.6755C95.4843 12.7766 69.721 15.9 44.2475 30.6478H44.2504Z" fill="url(#paint0_linear_31_40812)" stroke="#0500FF" stroke-width="0.286646" stroke-linecap="round" stroke-linejoin="round"></path><path d="M66.2657 68.6773C75.4582 63.355 81.064 55.8519 78.7867 51.9186C76.5094 47.9853 67.2113 49.1113 58.0189 54.4335C48.8265 59.7558 43.2206 67.2589 45.4979 71.1922C47.7752 75.1255 57.0733 73.9995 66.2657 68.6773Z" fill="#48FF91" stroke="#0500FF" stroke-width="0.286646" stroke-linecap="round" stroke-linejoin="round"></path><path d="M74.4898 49.6445C74.7048 49.8506 74.8899 50.0805 75.0392 50.3373C77.0249 53.7682 72.1368 60.3105 64.1224 64.9508C56.108 69.591 48.001 70.5734 46.0153 67.1455C45.866 66.8887 45.7615 66.614 45.6868 66.3243C44.8716 68.1966 44.7582 69.8896 45.5106 71.1915C47.789 75.1241 57.0874 73.9984 66.2783 68.6743C75.4692 63.3503 81.0769 55.8465 78.7986 51.9139C78.0461 50.612 76.5203 49.8685 74.4898 49.6445Z" fill="url(#paint1_linear_31_40812)"></path><path d="M75.14 61.7825C76.3075 60.5313 77.26 59.2832 77.9558 58.0828L74.6891 54.9863C74.1397 56.1091 73.3125 57.2975 72.2495 58.4949L75.14 61.7795V61.7825Z" fill="#48FF91"></path><path d="M71.565 59.2402C71.3471 59.4672 71.1201 59.6911 70.8872 59.9151L73.6642 63.2564C73.912 63.0265 74.1509 62.7936 74.3838 62.5637L71.565 59.2402Z" fill="#48FF91"></path><path d="M10.0589 70.8989C10.2231 70.1196 10.4381 69.3253 10.7098 68.5131L9.16609 65.8496C8.89436 66.6618 8.67937 67.4561 8.51514 68.2354L10.0589 70.8989Z" fill="#0500FF" stroke="#0500FF" stroke-width="0.286646" stroke-linecap="round" stroke-linejoin="round"></path><path d="M16.8968 57.4973C17.1834 57.1211 17.4761 56.7478 17.7777 56.3686L16.2339 53.7051C15.9323 54.0813 15.6397 54.4576 15.353 54.8338L16.8968 57.4973Z" fill="#0500FF" stroke="#0500FF" stroke-width="0.286646" stroke-linecap="round" stroke-linejoin="round"></path><path d="M13.3372 62.7955C14.1673 61.3502 15.1348 59.8781 16.2247 58.3881L14.6809 55.7246C13.591 57.2146 12.6236 58.6867 11.7935 60.1319L13.3372 62.7955Z" fill="#0500FF" stroke="#0500FF" stroke-width="0.286646" stroke-linecap="round" stroke-linejoin="round"></path><path d="M20.9545 58.4648C21.3299 58.2475 21.5404 57.9094 21.4247 57.7096C21.309 57.5098 20.9109 57.524 20.5356 57.7413C20.1602 57.9586 19.9497 58.2967 20.0654 58.4965C20.1811 58.6963 20.5792 58.6822 20.9545 58.4648Z" fill="#F4F4F7"></path><path d="M23.517 55.8203C23.8924 55.603 24.1029 55.2648 23.9872 55.065C23.8715 54.8652 23.4734 54.8794 23.0981 55.0967C22.7227 55.3141 22.5122 55.6522 22.6279 55.852C22.7436 56.0518 23.1417 56.0376 23.517 55.8203Z" fill="#F4F4F7"></path><path d="M26.1576 53.1582C26.533 52.9409 26.7435 52.6027 26.6278 52.4029C26.5121 52.2031 26.1141 52.2173 25.7387 52.4346C25.3634 52.652 25.1529 52.9901 25.2685 53.1899C25.3842 53.3897 25.7823 53.3755 26.1576 53.1582Z" fill="#F4F4F7"></path><path d="M64.2292 51.4624C64.4024 44.5528 64.1605 35.2932 62.5869 25.2363" stroke="#0500FF" stroke-width="0.286646" stroke-linecap="round" stroke-linejoin="round"></path><path d="M72.5557 64.2508C75.9179 64.1195 79.9102 63.5939 84.01 62.2383" stroke="#0500FF" stroke-width="0.286646" stroke-linecap="round" stroke-linejoin="round"></path><path d="M78.7217 51.8034C86.1718 45.4194 95.2403 36.7182 103.341 26.3418" stroke="#0500FF" stroke-width="0.286646" stroke-linecap="round" stroke-linejoin="round"></path><path d="M77.9561 58.0822C84.4894 55.0305 92.5128 50.5635 100.509 44.2988" stroke="#0500FF" stroke-width="0.286646" stroke-linecap="round" stroke-linejoin="round"></path><path d="M74.8184 49.6853C80.1902 42.068 86.2428 31.7753 90.0828 19.9238" stroke="#0500FF" stroke-width="0.286646" stroke-linecap="round" stroke-linejoin="round"></path><path d="M52.3599 58.3326C46.2804 55.0421 38.3704 50.2227 30.4307 43.8535" stroke="#0500FF" stroke-width="0.286646" stroke-linecap="round" stroke-linejoin="round"></path><path d="M59.3064 71.9258C57.5178 74.7774 55.0752 77.9784 51.8623 80.8599" stroke="#0500FF" stroke-width="0.286646" stroke-linecap="round" stroke-linejoin="round"></path><path d="M45.4386 71.0762C36.194 74.3608 24.1305 77.8932 11.0996 79.7535" stroke="#0500FF" stroke-width="0.286646" stroke-linecap="round" stroke-linejoin="round"></path><path d="M51.2614 73.5371C45.3611 77.6847 37.4929 82.4205 28.0811 86.2396" stroke="#0500FF" stroke-width="0.286646" stroke-linecap="round" stroke-linejoin="round"></path><path d="M45.5442 66.6352C36.2637 67.5041 24.3227 67.6295 12.1338 65.0586" stroke="#0500FF" stroke-width="0.286646" stroke-linecap="round" stroke-linejoin="round"></path><path d="M67.7116 71.167C83.519 62.0148 93.159 49.1127 89.2431 42.3493C85.3272 35.586 69.3384 37.5225 53.531 46.6746C37.7236 55.8268 28.0836 68.7289 31.9995 75.4923C35.9153 82.2557 51.9042 80.3192 67.7116 71.167Z" stroke="#0500FF" stroke-width="0.286646" stroke-linecap="round" stroke-linejoin="round"></path><path d="M80.9374 56.0649L80.2715 55.4199" stroke="#2D9FFF" stroke-width="0.286646" stroke-linecap="round" stroke-linejoin="round"></path><path d="M74.4898 49.6445C74.7048 49.8506 74.8899 50.0805 75.0392 50.3373C77.0249 53.7682 72.1368 60.3105 64.1224 64.9508C56.108 69.591 48.001 70.5734 46.0153 67.1455C45.866 66.8887 45.7615 66.614 45.6868 66.3243C44.8716 68.1966 44.7582 69.8896 45.5106 71.1915C47.789 75.1241 57.0874 73.9984 66.2783 68.6743C75.4692 63.3503 81.0769 55.8465 78.7986 51.9139C78.0461 50.612 76.5203 49.8685 74.4898 49.6445Z" stroke="#0500FF" stroke-width="0.286646" stroke-linecap="round" stroke-linejoin="round"></path><path d="M149.541 122.598L149.538 122.595C149.391 122.442 149.236 122.293 149.075 122.144L74.2934 49.6196C70.1847 49.2374 64.0813 50.9215 58.0227 54.4301C52.1253 57.8461 47.7031 62.1608 45.8936 65.8515L62.7615 128.614C62.8033 128.808 62.8541 129 62.9168 129.191C65.3832 136.862 84.2876 142.828 107.247 142.828C131.881 142.828 151.852 135.96 151.852 127.486C151.852 125.778 151.037 124.132 149.538 122.598H149.541Z" fill="url(#paint2_linear_31_40812)"></path><path d="M149.539 122.598L82.0938 57.1836" stroke="#2D9FFF" stroke-width="0.286646" stroke-linecap="round" stroke-linejoin="round"></path><path d="M48.2627 74.6562L62.912 129.193" stroke="#2D9FFF" stroke-width="0.286646" stroke-linecap="round" stroke-linejoin="round"></path><path d="M107.243 142.829C131.877 142.829 151.848 135.96 151.848 127.487C151.848 119.013 131.877 112.145 107.243 112.145C82.608 112.145 62.6377 119.013 62.6377 127.487C62.6377 135.96 82.608 142.829 107.243 142.829Z" stroke="#2D9FFF" stroke-width="0.286646" stroke-linecap="round" stroke-linejoin="round"></path></g><defs><linearGradient id="paint0_linear_31_40812" x1="30.6075" y1="53.5068" x2="44.9004" y2="45.2316" gradientUnits="userSpaceOnUse"><stop stop-color="#FFAEFE"></stop><stop offset="1" stop-color="#FFF465"></stop></linearGradient><linearGradient id="paint1_linear_31_40812" x1="46.5361" y1="72.9742" x2="79.8248" y2="53.7007" gradientUnits="userSpaceOnUse"><stop stop-color="#48FF91"></stop><stop offset="1" stop-color="#2D9FFF"></stop></linearGradient><linearGradient id="paint2_linear_31_40812" x1="57.6729" y1="120.441" x2="125.806" y2="80.9934" gradientUnits="userSpaceOnUse"><stop stop-color="#48FF91"></stop><stop offset="0.02" stop-color="#48FF91" stop-opacity="0.91"></stop><stop offset="0.08" stop-color="#48FF91" stop-opacity="0.67"></stop><stop offset="0.14" stop-color="#48FF91" stop-opacity="0.47"></stop><stop offset="0.2" stop-color="#48FF91" stop-opacity="0.3"></stop><stop offset="0.26" stop-color="#48FF91" stop-opacity="0.17"></stop><stop offset="0.31" stop-color="#48FF91" stop-opacity="0.08"></stop><stop offset="0.36" stop-color="#48FF91" stop-opacity="0.02"></stop><stop offset="0.4" stop-color="#48FF91" stop-opacity="0"></stop><stop offset="0.46" stop-color="#46FA95" stop-opacity="0.04"></stop><stop offset="0.55" stop-color="#43EFA2" stop-opacity="0.16"></stop><stop offset="0.67" stop-color="#3EDCB8" stop-opacity="0.36"></stop><stop offset="0.81" stop-color="#37C3D5" stop-opacity="0.62"></stop><stop offset="0.98" stop-color="#2EA3FA" stop-opacity="0.96"></stop><stop offset="1" stop-color="#2D9FFF"></stop></linearGradient><clipPath id="clip0_31_40812"><rect width="144" height="125.956" fill="white" transform="translate(8 17.0215)"></rect></clipPath></defs></svg>